<svg width="11" height="16" viewBox="0 0 11 16" fill="none" xmlns="http://www.w3.org/2000/svg">
<path d="M1.57143 10H0V11.5H1.57143V13H3.14286V14.5H4.71429V16H6.28571V14.5H7.85714V13H9.42857V11.5H11V10H9.42857V11.5H7.85714V13H6.28571V14.5H4.71429V13H3.14286V11.5H1.57143V10Z" fill="white"/>
<path d="M9.42857 6L11 6L11 4.5L9.42857 4.5L9.42857 3L7.85714 3L7.85714 1.5L6.28571 1.5L6.28571 -4.12136e-07L4.71429 -5.49515e-07L4.71429 1.5L3.14286 1.5L3.14286 3L1.57143 3L1.57143 4.5L3.69553e-07 4.5L2.38419e-07 6L1.57143 6L1.57143 4.5L3.14286 4.5L3.14286 3L4.71429 3L4.71429 1.5L6.28571 1.5L6.28571 3L7.85714 3L7.85714 4.5L9.42857 4.5L9.42857 6Z" fill="white"/>
</svg>
