<svg width="22" height="27" viewBox="0 0 22 27" fill="none" xmlns="http://www.w3.org/2000/svg">
<path d="M1.31985 26.9955L20.6798 27H20.6801C20.8535 27 21.0252 26.9651 21.1853 26.8972C21.3455 26.8293 21.491 26.7298 21.6136 26.6044C21.7361 26.479 21.8334 26.3302 21.8997 26.1663C21.966 26.0025 22.0001 25.8269 22 25.6495L21.9975 19.0391C21.9978 18.7656 21.9165 18.4984 21.7644 18.2734L15.8382 9.47878V5.90627H18.038C18.3879 5.90586 18.7234 5.76349 18.9708 5.51041C19.2182 5.25732 19.3574 4.91419 19.3578 4.55627V0H2.6397V4.55627C2.6401 4.91419 2.77928 5.25734 3.02671 5.51042C3.27415 5.76351 3.60963 5.90587 3.95956 5.90627H6.15474V9.54122L0.235155 18.272C0.0817059 18.4978 -0.000367746 18.7662 1.23871e-06 19.0412V25.6455C0.00042329 26.0034 0.139614 26.3465 0.387043 26.5996C0.634472 26.8527 0.969936 26.9951 1.31985 26.9955ZM7.91455 10.1043V4.10627H4.39951V1.80001H17.598V4.10627H14.0784V10.039L17.6236 15.3001H4.39175L7.91455 10.1043ZM1.7598 19.1819L3.17133 17.1001H18.8365L20.2377 19.1797L20.2398 25.2001L1.7598 25.1956V19.1819Z" fill="currentColor"/>
</svg>
