<svg width="24" height="27" viewBox="0 0 24 27" fill="none" xmlns="http://www.w3.org/2000/svg">
<path d="M23.8251 19.0789L21.186 14.2199V9.16071C21.186 4.10948 17.0652 0 12.0002 0C6.93509 0 2.81435 4.10948 2.81435 9.16071V14.2199L0.175114 19.0789C0.0554271 19.2992 -0.00481165 19.5468 0.000300254 19.7973C0.00541215 20.0478 0.0756993 20.2927 0.204274 20.508C0.33285 20.7233 0.515302 20.9016 0.733755 21.0254C0.952207 21.1492 1.19917 21.2143 1.45043 21.2143H6.70418C6.6898 21.3732 6.682 21.5337 6.682 21.6964C6.682 23.103 7.2423 24.452 8.23964 25.4466C9.23697 26.4412 10.5897 27 12.0001 27C13.4106 27 14.7632 26.4412 15.7606 25.4466C16.7579 24.452 17.3182 23.103 17.3182 21.6964C17.3182 21.5337 17.3104 21.3732 17.296 21.2143H22.5498C22.801 21.2143 23.0479 21.1491 23.2664 21.0253C23.4848 20.9015 23.6672 20.7232 23.7958 20.5079C23.9243 20.2927 23.9946 20.0478 23.9997 19.7973C24.0048 19.5468 23.9446 19.2992 23.8249 19.0789H23.8251ZM15.3844 21.6964C15.3848 22.1602 15.2893 22.6191 15.1039 23.0445C14.9185 23.4699 14.6472 23.8526 14.3069 24.1687C13.9666 24.4848 13.5646 24.7276 13.126 24.8819C12.6875 25.0362 12.2217 25.0987 11.7578 25.0655C11.2939 25.0323 10.8419 24.9041 10.4299 24.6889C10.0179 24.4737 9.65482 24.1761 9.3633 23.8147C9.07178 23.4533 8.85807 23.0359 8.73552 22.5885C8.61297 22.1411 8.58421 21.6733 8.65103 21.2143H15.3492C15.3725 21.374 15.3842 21.5351 15.3844 21.6964ZM2.26211 19.2857L4.7482 14.7087V9.16071C4.7482 7.24263 5.51225 5.40311 6.87225 4.04682C8.23226 2.69053 10.0768 1.92857 12.0002 1.92857C13.9235 1.92857 15.7681 2.69053 17.1281 4.04682C18.4881 5.40311 19.2521 7.24263 19.2521 9.16071V14.7087L21.7381 19.2857H2.26211Z" fill="currentColor"/>
</svg>
