<svg width="100" height="100" viewBox="0 0 100 100" fill="none" xmlns="http://www.w3.org/2000/svg">
<rect width="100" height="100" fill="#FFEC1A"/>
<path d="M26 44V40H22V44H18V48H22V52V56V60H26V56V52V48H30H34V44H30H26Z" fill="black"/>
<path d="M42 52V48H46H50H54V44H50H46H42V40V36H38V40V44V48V52V56V60H42V56V52Z" fill="black"/>
<path d="M46 60H42V64H46H50H54V60H50H46Z" fill="black"/>
<path d="M54 52V56V60H58V56V52V48H54V52Z" fill="black"/>
<path d="M66 52V48H62V52V56V60H66V56V52Z" fill="black"/>
<path d="M70 60H66V64H70H74H78V60H74H70Z" fill="black"/>
<path d="M78 40V44H74H70H66V48H70H74H78V52V56V60H82V56V52V48V44V40V36H78V40Z" fill="black"/>
<path d="M30 64H34V60H30H26V64H30Z" fill="black"/>
</svg>
