<svg width="178" height="258" viewBox="0 0 178 258" fill="none" xmlns="http://www.w3.org/2000/svg">
<g clip-path="url(#clip0_116_7496)">
<path d="M110.144 244.421H96.5723V258H110.144V244.421Z" fill="#9A19FF"/>
<path d="M69.4289 244.421H55.8574V258H69.4289V244.421Z" fill="#9A19FF"/>
<path d="M15.1437 244.421H1.57227V258H15.1437V244.421Z" fill="#9A19FF"/>
<path d="M164.429 244.421H150.857V258H164.429V244.421Z" fill="#9A19FF"/>
<path d="M15.1437 203.684H1.57227V230.842H15.1437V203.684Z" fill="#9A19FF"/>
<path d="M164.429 203.684H150.857V230.842H164.429V203.684Z" fill="#9A19FF"/>
<path d="M96.5706 0V13.5789H69.4277V0H96.5706Z" fill="#9A19FF"/>
<path d="M55.8574 27.158V13.5791H69.4288V27.158H55.8574Z" fill="#9A19FF"/>
<path d="M42.2852 40.7367V27.1577H55.8566V40.7367H42.2852Z" fill="#9A19FF"/>
<path fill-rule="evenodd" clip-rule="evenodd" d="M123.714 40.7368V149.368H42.2857V40.7368H28.7143V108.632H15.1429V122.211H1.57143V135.789H-12V176.526H1.57143V190.105H15.1429V176.526H28.7143V162.947H42.2857V190.105H55.8571V203.684H69.4286V217.263H96.5714V203.684H110.143V190.105H123.714V162.947H137.286V176.526H150.857V190.105H164.429V176.526H178V135.789H164.429V122.211H150.857V108.632H137.286V40.7368H123.714ZM150.857 122.211V135.789H164.429V176.526H150.857V162.947H137.286V122.211H150.857ZM110.143 190.105H96.5714V203.684H69.4286V190.105H55.8571V162.947H110.143V190.105ZM28.7143 162.947H15.1429V176.526H1.57143V135.789H15.1429V122.211H28.7143V162.947Z" fill="#9A19FF"/>
<path d="M110.143 27.1577H123.714V40.7367H110.143V27.1577Z" fill="#9A19FF"/>
<path d="M110.144 27.158V13.5791H96.5723V27.158H110.144Z" fill="#9A19FF"/>
<path d="M69.4288 54.3159V81.4738H55.8574V54.3159H69.4288Z" fill="#9A19FF"/>
<path d="M96.5706 54.3158H69.4277V40.7368H96.5706V54.3158Z" fill="#9A19FF"/>
<path d="M96.5723 81.4738V54.3159H110.144V81.4738H96.5723Z" fill="#9A19FF"/>
<path d="M96.5706 81.4736H69.4277V95.0526H96.5706V81.4736Z" fill="#9A19FF"/>
</g>
<defs>
<clipPath id="clip0_116_7496">
<rect width="190" height="258" fill="white" transform="translate(-12)"/>
</clipPath>
</defs>
</svg>
