<svg width="58" height="25" viewBox="0 0 58 25" fill="none" xmlns="http://www.w3.org/2000/svg">
<g clip-path="url(#clip0_113_7039)">
<path d="M7.25 3.57129H3.625V7.14272H7.25V3.57129Z" fill="#FFEC19"/>
<path d="M21.75 3.57129H18.125V7.14272H21.75V3.57129Z" fill="#FFEC19"/>
<path d="M54.375 3.57129H58V7.14272H54.375V3.57129Z" fill="#FFEC19"/>
<path d="M21.75 0H18.125V3.57143H21.75V0Z" fill="#FFEC19"/>
<path d="M54.375 0H58V3.57143H54.375V0Z" fill="#FFEC19"/>
<path d="M7.25 7.14307H3.625V10.7145H7.25V7.14307Z" fill="#FFEC19"/>
<path d="M21.75 7.14307H18.125V10.7145H21.75V7.14307Z" fill="#FFEC19"/>
<path d="M54.375 7.14307H58V10.7145H54.375V7.14307Z" fill="#FFEC19"/>
<path d="M7.25 10.7144H3.625V14.2858H7.25V10.7144Z" fill="#FFEC19"/>
<path d="M21.75 10.7144H18.125V14.2858H21.75V10.7144Z" fill="#FFEC19"/>
<path d="M54.375 10.7144H58V14.2858H54.375V10.7144Z" fill="#FFEC19"/>
<path d="M36.25 10.7144H32.625V14.2858H36.25V10.7144Z" fill="#FFEC19"/>
<path d="M39.875 10.7144H43.5V14.2858H39.875V10.7144Z" fill="#FFEC19"/>
<path d="M7.25 14.2856H3.625V17.8571H7.25V14.2856Z" fill="#FFEC19"/>
<path d="M21.75 14.2856H18.125V17.8571H21.75V14.2856Z" fill="#FFEC19"/>
<path d="M54.375 14.2856H58V17.8571H54.375V14.2856Z" fill="#FFEC19"/>
<path d="M36.25 14.2856H32.625V17.8571H36.25V14.2856Z" fill="#FFEC19"/>
<path d="M39.875 14.2856H43.5V17.8571H39.875V14.2856Z" fill="#FFEC19"/>
<path d="M7.25 17.8569H3.625V21.4284H7.25V17.8569Z" fill="#FFEC19"/>
<path d="M21.75 17.8569H18.125V21.4284H21.75V17.8569Z" fill="#FFEC19"/>
<path d="M54.375 17.8569H58V21.4284H54.375V17.8569Z" fill="#FFEC19"/>
<path d="M36.25 17.8569H32.625V21.4284H36.25V17.8569Z" fill="#FFEC19"/>
<path d="M39.875 17.8569H43.5V21.4284H39.875V17.8569Z" fill="#FFEC19"/>
<path d="M10.875 21.4287H7.25V25.0001H10.875V21.4287Z" fill="#FFEC19"/>
<path d="M25.375 21.4287H21.75V25.0001H25.375V21.4287Z" fill="#FFEC19"/>
<path d="M50.75 21.4287H54.375V25.0001H50.75V21.4287Z" fill="#FFEC19"/>
<path d="M25.375 7.14307H21.75V10.7145H25.375V7.14307Z" fill="#FFEC19"/>
<path d="M50.75 7.14307H54.375V10.7145H50.75V7.14307Z" fill="#FFEC19"/>
<path d="M14.5 21.4287H10.875V25.0001H14.5V21.4287Z" fill="#FFEC19"/>
<path d="M29 21.4287H25.375V25.0001H29V21.4287Z" fill="#FFEC19"/>
<path d="M47.125 21.4287H50.75V25.0001H47.125V21.4287Z" fill="#FFEC19"/>
<path d="M29 7.14307H25.375V10.7145H29V7.14307Z" fill="#FFEC19"/>
<path d="M47.125 7.14307H50.75V10.7145H47.125V7.14307Z" fill="#FFEC19"/>
<path d="M32.625 21.4287H29V25.0001H32.625V21.4287Z" fill="#FFEC19"/>
<path d="M43.5 21.4287H47.125V25.0001H43.5V21.4287Z" fill="#FFEC19"/>
<path d="M32.625 7.14307H29V10.7145H32.625V7.14307Z" fill="#FFEC19"/>
<path d="M43.5 7.14307H47.125V10.7145H43.5V7.14307Z" fill="#FFEC19"/>
<path d="M10.875 7.14307H7.25V10.7145H10.875V7.14307Z" fill="#FFEC19"/>
<path d="M14.5 7.14307H10.875V10.7145H14.5V7.14307Z" fill="#FFEC19"/>
<path d="M3.625 7.14307H0V10.7145H3.625V7.14307Z" fill="#FFEC19"/>
</g>
<defs>
<clipPath id="clip0_113_7039">
<rect width="58" height="25" fill="white"/>
</clipPath>
</defs>
</svg>
